<svg height="32" viewBox="0 0 138 32" width="138" xmlns="http://www.w3.org/2000/svg" xmlns:xlink="http://www.w3.org/1999/xlink"><mask id="a" fill="#fff"><path d="m0 0h25.621778v31.314h-25.621778z" fill="#fff" fill-rule="evenodd"/></mask><g fill="none" fill-rule="evenodd"><path d="m11.0266028 3.08333333c1.4122665.54666667 2.7455619 1.296 3.8248336 2.03333334 1.1292867.47333333 2.8719156 1.20133333 2.8719156 1.16533333-.3106197 1.66666667-.6133422 2.60666667-1.0726908 3.9226667-.334311.9613333-.9792416 2.9733333-1.2411624 4.1333333.5040988.6866667 1.5149289 1.9333333 1.5149289 1.968.8976381 1.288 1.7742173 4.3293333 1.5307231 6.1346667.5646434 1.984 2.7350324 4.5453333 7.1666272 5.944-.3369434.2786666-3.0535492 2.804-3.0917185 2.768-2.9206145-3.4066667-5.6648601-5.4906667-6.3861295-6.7026667-.1342509-2.0733333-.3277301-4.184-.6831-6.004-.4119659-.5866667-.931859-1.4986667-.931859-1.4986667l-.9818739 4.2293334-7.24954687 10.1373333s-5.57667572-2.9493333-5.58983757-2.9666667c1.45570058-.8426666 3.2404474-1.348 4.52372774-2.1186666 1.14113237-1.7586667 2.72713526-3.54 4.39737399-5.0813334.82261561-1.0933333 1.36356761-1.8813333 2.00454971-2.716.1882145-1.6 1.5504659-7.832 1.7347318-9.5933333-1.7044595 1.22-4.26970405 2.0293333-6.77177168 2.0506667-2.50206763.0226666-4.37499884-.316-6.59671908-1.08800003 0 0 .36458324-1.28933334.40012024-1.35733334 3.28914624.564 7.22717167-.288 9.91876992-1.99333333-2.94298958-.49333333-6.07024507-1.904-8.56968033-4.97466667.01842659 0-.11582428-1.476-.11582428-1.476s1.98612313.79333334 1.96769654.76c2.1624919 1.748 5.00281907 2.13733334 7.42591557 2.324" fill="#0075c1" mask="url(#a)"/><path d="m16.7514451 2.65841453c.131717-.83346593.4739349-1.563296.9774138-1.76910808.5711839-.23354562 1.0722008-.0145966 1.4156498.72253177-.194498.73128972-.451777 1.62606139-.8173839 2.22160272-.3434489.14012737-.6278099.223328-.9491008.12115179-.252355-.08174097-.5133269-.79843409-.6265789-1.2961782" fill="#0075c1"/><path d="m25.5289435 9.09920031c-.0341798-.40294228.2348484-.98893548.5788518-1.07643152.3429007-.0886473.6549293.09440362.8445722.32695888.1907454.21643757.1929506.611321.1378218.86920406-.1863351.16232818-.2789514.24521916-.5259281.37416069l-.4730046.00690758c-.2712333-.15311807-.4244912-.30047981-.5623131-.50079969" fill="#e5a600"/><path d="m22.3611618 10.9824261c.7839308-.2905342 1.5717813-.4290132 2.4680756-.3814959.1803041-.0420867.6062399-.1764927.5944809-.2009302 1.8539964.0651666 3.9288001.6475927 5.7618917 1.9821496 1.8161065 1.330484 3.7249781 4.24533 2.9292883 8.3576116-1.791282-4.7720931-4.3743342-7.0094784-6.5157719-7.9530359-.064021-.07467-.3423165-.317687-.3423165-.317687s-.0796996.6530233-.090152.7928599c.5278467 2.3310622.6911657 4.0240352.9328777 6.1202263.1502534.4548082 1.0295625 2.2292394 1.0295625 2.2292394s1.2569024 1.872181 1.7351003 2.7329227c.5461384.9639221 2.187167 4.1204274 2.9175293 5.4414079-.722523.2837461-3.4793464 1.3209805-3.4793464 1.3209805l-1.3130842-4.1245003s-1.4920817-3.7049905-1.9101782-4.6431175c-.5487516-1.7418479-1.0713721-3.5162791-1.5351979-4.7259334 0 0-.9681546.1221873-.9812201.1344061.165932.9517033.1162831 1.6183029-.1999024 2.7410685-.3606081 1.2788937-1.6593202 3.3167064-2.7907938 5.0218981-.026131.982929-.1502534 2.7980893-.1907565 3.6126713-.317492.4127216-.6415167 1.0223005-.6415167 1.0223005l-2.1479705 1.8545317c.203822-4.4964928 1.0635328-6.8791452 2.2916911-9.4233564 1.421528-1.4105845 2.4968198-2.7505719 2.158423-4.607819-.7447343-1.6250911-.9577022-3.1782275-1.0674525-4.7843117-.5644302 1.4703205-.8610174 3.5162791-.9341843 4.8902074-.9328777 1.2571716-1.5730879 3.0506097-2.0264612 4.5019233.0091458 0-1.4646442-1.0413073-1.4646442-1.0413073.3475427-2.4573225.8701633-4.0769831 1.3640397-5.4495538 1.0125774-1.9482086 2.5530015-4.1272156 3.4479892-5.1033564" fill="#e5a600"/><g fill="#e7390e"><path d="m38.4633432 20.7909476-.1743259-.4679062c1.4283906-1.3938231 4.0743592-3.1057093 5.1986932-3.7149768.4081116-.5089009.4162197-1.3768597.4527065-1.8051847.7837905-.2742411 1.6770414-.3802621 2.312182-.4028799.0472977.9669118.0472977 2.8060232-1.4216338 3.6273328-1.0932526 1.6624097-2.9175925 2.89084-6.367622 2.7636148"/><path d="m36.1726959 20.6967155 2.1600901-.4578902c-.0979453 1.070111-.1442708 1.6504454-.1297113 2.0751736.0092651.4272791-.0277953 1.0688355-.0886802 1.6058042-.0105887-.0089282 7.7217927.6989522 7.7217927.6989522s.9251857-.1900436 1.4453544-.3864644c.124417.4247282.5797301 1.804776.5797301 1.804776l-1.7802213.1224442c-2.0211138-.7588988-3.5829436-.7895098-4.6431349-.7142577-.9701875.2614693-1.9297864.4068718-3.0945409.479573-.939745.5803344-2.3625985 1.3137239-3.5538247 1.6172834-1.0363667.080354-1.7603675.1428516-2.1481778.1862172-.3864867.0420902-1.1951969.2283074-1.4877091.271673.0105886-.6045681 0-1.4846356 0-1.4846356s.3653093 0 .7729734-.0293355c.414282-.0318865 2.2646533-.3341706 2.9185041-.5535497 1.0443082-.6504847 1.9867005-1.022919 2.8483541-1.4195871-.0238245-.1466779-.0555906-.4145245-.0555906-.4145245l-.4103112.0701503s-.5281103-.9514933-.7345895-1.5012166c-.203832-.5497233-.2885414-.9030257-.3653093-1.3060711-.1164755-.0522939-1.0032772-.4476865-1.0032772-.4476865-1.1978441.0931086-2.0409675.2066245-2.5862843.510184-.3613386.3584043-1.3077016 1.566265-1.3077016 1.566265-.2898651-.6759938 0-1.9514539.2686876-2.5126564.2832472-.6020171 1.414912-1.3188257 2.1680317-1.2754601 1.0522497.063773 1.5115336.3660571 2.5055457 1.4948393"/><path d="m36.8670475 19.2-.3973268-.1018165-.5737669-.9303923c.1616244-.4950389.5131577-.572279.8579566-.5675978.3447988 0 .6424573.2949168.6963321.5406808.0579154.2387422.0471405.4154582.0134687.5687681-.1481558.2293797-.3259427.353432-.5966637.4903577"/></g><g fill="#231916"><path d="m73.5091522 20.5854895c0 .0091559.5211017-1.2883712.5211017-1.2883712 1.0707754.0706315 2.1061758.1033313 3.0735473.0235439 0-2.3700797-.768727-3.9122011-2.2204645-3.9122011-1.1415255 0-2.3524406 1.2190476-2.3524406 4.4367055 0 2.606826 1.3837086 5.7290006 4.6028378 5.7290006 1.1129534 0 1.8939256-.2655222 2.6204746-.6736154l-.3673563 1.3354588s-1.469425.9639894-3.5987306.9639894c-3.9184667 0-6.3892777-2.6473738-6.3892777-6.5373391 0-3.7905579 2.9225231-6.2626609 5.8028682-6.2626609 3.2313745 0 5.3647619 2.6447578 5.3647619 6.1854895-1.0558091-.0418557-2.2150222-.0680156-3.2994034-.0680156-1.1918669 0-2.3388348.0366238-3.7579184.0680156"/><path d="m80.574503 16.3059834c0 .0120717.3626435-.9469558.3626435-.9469558 1.2940084-.0845018 3.2303373-.4748193 4.3972197-.8584303-.0548648.7377135-.0856427 1.0167033-.0856427 1.8053861 1.0651816-.9442732 2.35919-1.9059834 3.7789862-1.9059834 1.5255114 0 3.4123281 1.0448706 3.2959075 4.2800796-.064232 1.9314681-.0963481 4.0815677-.0963481 5.8051347 0 1.1307136.5593542 1.7651472 1.8988603 1.8322121.0227488.0093891-.3358802.8825736-.3358802.8825736-1.3635931-.1140103-3.2905548-.1220581-4.4775098-.0013413 0-2.034748.0628939-5.1036362.0628939-7.5045583 0-1.7718537-.1525511-3.2513046-1.9095656-3.1922876-1.0451091.0388977-1.7061641.6478466-2.1865663 1.2997171-.078952 2.2064341-.078952 5.197527-.0307779 7.182647.0173962.7833176.4349046 1.2178979 1.625874 1.3332495-.008029 0-.3599672.8825736-.3599672.8825736-1.7824396-.1287645-4.1322625-.1140103-5.7822235-.0120717l-.1659328-.893304c1.0852542-.1435188 1.617845-.482867 1.7168694-1.3104474.1405076-1.1146181.2020634-2.9052499.2020634-4.5590695 0-1.9341507-.0495122-2.838185-.2194596-3.3210521-.1806526-.5231059-.7761374-.8503825-1.6914442-.7980719"/><path d="m114.594779 14.5710497v3.1102315l-.854055.2911762c-.353921-1.606039-1.253071-2.6349485-2.834098-2.6349485-1.583761 0-2.093461 1.0563297-2.093461 1.7418342 0 .6476384.323858 1.2639396 1.258536 1.5903703.918281.3212077 2.544402.8918086 3.3315 1.2038763.934678.372131 2.261539 1.3096399 2.261539 3.1520147 0 1.8671835-1.598792 4.1743956-5.58484 4.1743956-1.057662 0-2.711114-.1984699-3.987414-.1984699v-3.7030296l.937411-.3238193c.169445 1.6778537 1.339159 3.2199123 3.328767 3.2199123 1.986874 0 2.450114-1.4310721 2.450114-2.0630419 0-.767765-.502868-1.2991942-1.341892-1.6778538-.940144-.419137-2.73571-.9897378-3.623928-1.4898296-.881386-.5053147-1.631588-1.4023462-1.631588-2.7929409 0-1.4676324 1.20661-3.7709273 4.994517-3.7709273 1.054929 0 2.388622.1906355 3.388892.1710497"/><path d="m98.2429182 20.5854895c.0013606.0091559.5170199-1.2883712.5170199-1.2883712 1.0680543.0706315 2.0993729.1033313 3.0735469.0235439 0-2.3700797-.760563-3.9122011-2.2191034-3.9122011-1.1456073 0-2.35108 1.2190476-2.35108 4.4367055 0 2.606826 1.3823479 5.7290006 4.6001164 5.7290006 1.119756 0 1.898007-.2655222 2.63272-.6736154l-.380962 1.3354588s-1.476228.9639894-3.598731.9639894c-3.9171059 0-6.3892774-2.6473738-6.3892774-6.5373391 0-3.7905579 2.9225231-6.2626609 5.8015077-6.2626609 3.2327347 0 5.3661227 2.6447578 5.3661227 6.1854895-1.058531-.0418557-2.210941-.0680156-3.293961-.0680156-1.183704 0-2.3347534.0366238-3.7579188.0680156"/><path d="m124.959562 14.5710497v3.1102315l-.845615.2911762c-.359284-1.606039-1.259543-2.6349485-2.836021-2.6349485-1.581942 0-2.087399 1.0563297-2.087399 1.7418342 0 .6476384.315569 1.2639396 1.254079 1.5903703.918018.3212077 2.547774.8918086 3.327816 1.2038763.939876.372131 2.26226 1.3096399 2.26226 3.1520147 0 1.8671835-1.595603 4.1743956-5.572317 4.1743956-1.07512 0-2.71717-.1984699-3.999937-.1984699v-3.7030296l.935777-.3238193c.173495 1.6778537 1.346974 3.2199123 3.334648 3.2199123 1.983575 0 2.453513-1.4310721 2.453513-2.0630419 0-.767765-.515019-1.2991942-1.344241-1.6778538-.941242-.419137-2.744493-.9897378-3.629725-1.4898296-.878401-.5053147-1.625657-1.4023462-1.625657-2.7929409 0-1.4676324 1.208997-3.7709273 4.998555-3.7709273 1.051896 0 2.378378.1906355 3.374264.1710497"/><path d="m130.938956 20.5854895c0 .0091559.523696-1.2883712.523696-1.2883712 1.060993.0706315 2.108383.1033313 3.070078.0235439 0-2.3700797-.76854-3.9122011-2.217203-3.9122011-1.149409 0-2.353228 1.2190476-2.353228 4.4367055 0 2.606826 1.391533 5.7290006 4.600356 5.7290006 1.120844 0 1.898905-.2655222 2.627998-.6736154l-.375428 1.3354588s-1.475869.9639894-3.595134.9639894c-3.921593 0-6.387721-2.6473738-6.387721-6.5373391 0-3.7905579 2.921811-6.2626609 5.797374-6.2626609 3.236028 0 5.370256 2.6447578 5.370256 6.1854895-1.062353-.0418557-2.215843-.0680156-3.30268-.0680156-1.190217 0-2.336905.0366238-3.758364.0680156"/><path d="m53.0435296 11.5897484.4680311-1.1156373c1.7554559 0 1.8721246.0754346 3.0171051.0754346 1.1517636 0 4.3465849-.1495457 5.5227675-.1495457 3.4105226 0 5.4983485.9687384 5.4983485 3.4911637 0 1.858072-2.4419017 3.1761914-3.7171169 3.7187908l.0135661.0780814c2.4242656.3665854 4.7549251 1.43855 4.7549251 4.2415389 0 2.9445941-2.9397783 5.3135035-7.3948921 5.2698309-1.8192167-.0251448-3.1297039-.1257242-4.7277928-.1257242-1.5994456 0-3.5963785.0383789-3.5963785.0383789l-.2346939-.9859427c1.3674649-.0966092 2.633184-.4605478 2.7824113-2.4072884.1560104-1.9374768.1858558-4.0125885.1858558-5.8150771 0-1.7919013-.073257-3.2886815-.1085289-4.2560965-.0773269-1.4200222-.4585349-2.1293716-2.4636074-2.0579073m7.6241594-.1918949c1.3837443-.0304385 3.1554796.5942124 3.1649759 2.5766852.0054264 1.5192783-1.4013802 3.2886816-3.9314616 3.6751182l.3988439 1.0269685c2.1570131-.471135 4.6653887.4301093 4.6653887 3.3932312 0 3.0292925-2.6046951 4.1224318-3.8446384 4.1224318-1.2358736 0-2.1420904-.4512839-2.2167041-1.8157228-.0841099-1.3564984-.1071723-3.6155646-.1071723-6.3444423 0-2.7288778.0746136-4.4413744.1275215-5.3704103.0678306-1.0997563.4693878-1.2281274 1.7432464-1.2638595"/></g></g></svg>